<?xml version="1.0" encoding="UTF-8" standalone="no"?>
<!-- Created with Inkscape (http://www.inkscape.org/) -->

<svg
   xmlns:dc="http://purl.org/dc/elements/1.1/"
   xmlns:cc="http://creativecommons.org/ns#"
   xmlns:rdf="http://www.w3.org/1999/02/22-rdf-syntax-ns#"
   xmlns:svg="http://www.w3.org/2000/svg"
   xmlns="http://www.w3.org/2000/svg"
   xmlns:sodipodi="http://sodipodi.sourceforge.net/DTD/sodipodi-0.dtd"
   xmlns:inkscape="http://www.inkscape.org/namespaces/inkscape"
   width="20"
   height="20"
   viewBox="0 0 5.2916666 5.2916668"
   version="1.1"
   id="svg8"
   inkscape:version="0.92.4 (5da689c313, 2019-01-14)"
   sodipodi:docname="search.svg">
  <defs
     id="defs2" />
  <sodipodi:namedview
     id="base"
     pagecolor="#ffffff"
     bordercolor="#666666"
     borderopacity="1.0"
     inkscape:pageopacity="0.0"
     inkscape:pageshadow="2"
     inkscape:zoom="22.627417"
     inkscape:cx="18.87376"
     inkscape:cy="11.81115"
     inkscape:document-units="mm"
     inkscape:current-layer="layer2"
     showgrid="false"
     units="px"
     inkscape:window-width="1600"
     inkscape:window-height="847"
     inkscape:window-x="-8"
     inkscape:window-y="-8"
     inkscape:window-maximized="1" />
  <metadata
     id="metadata5">
    <rdf:RDF>
      <cc:Work
         rdf:about="">
        <dc:format>image/svg+xml</dc:format>
        <dc:type
           rdf:resource="http://purl.org/dc/dcmitype/StillImage" />
        <dc:title></dc:title>
      </cc:Work>
    </rdf:RDF>
  </metadata>
  <g
     inkscape:label="Capa 1"
     inkscape:groupmode="layer"
     id="layer1"
     transform="translate(0,-291.70831)"
     style="display:none">
    <path
       style="opacity:1;fill:#666666;fill-opacity:1;fill-rule:evenodd;stroke:none;stroke-width:27.10000038;stroke-linecap:round;stroke-linejoin:round;stroke-miterlimit:4;stroke-dasharray:none;stroke-dashoffset:0;stroke-opacity:1;paint-order:fill markers stroke"
       d="m 0.74632139,291.40233 3.6929e-4,3.6e-4 a 2.333879,2.333879 0 0 0 0.005009,3.29954 2.333879,2.333879 0 0 0 3.02256312,0.23235 l 1.9995492,1.99954 0.5100425,-0.51004 -2.0006489,-2.00064 a 2.333879,2.333879 0 0 0 -0.2330661,-3.02403 l -0.00413,-0.004 a 2.333879,2.333879 0 0 0 -3.2995667,0.007 z m 0.51004191,0.50785 a 1.6146567,1.6146567 0 0 1 2.2827498,-0.005 l 0.00291,0.003 a 1.6146567,1.6146567 0 0 1 7.465e-4,2.28312 1.6146567,1.6146567 0 0 1 -2.2827485,0.002 1.6146567,1.6146567 0 0 1 -0.003,-2.28275 z"
       id="path815"
       inkscape:connector-curvature="0" />
  </g>
  <g
     inkscape:groupmode="layer"
     id="layer2"
     inkscape:label="Capa 2"
     transform="translate(0,-1.0583333)">
    <path
       style="opacity:1;fill:#666666;fill-opacity:1;fill-rule:evenodd;stroke:none;stroke-width:23.34608078;stroke-linecap:round;stroke-linejoin:round;stroke-miterlimit:4;stroke-dasharray:none;stroke-dashoffset:0;stroke-opacity:1;paint-order:fill markers stroke"
       d="m 0.60467979,1.6678136 a 1.8468678,1.8468678 0 0 0 0.003899,2.6109561 1.8468678,1.8468678 0 0 0 2.50237881,0.09688 l 1.8653115,1.8653114 c 0.057193,0.057193 0.1491641,0.057193 0.206357,0 0.057193,-0.057193 0.057193,-0.1491642 0,-0.206357 L 3.3170148,4.1689926 A 1.8468678,1.8468678 0 0 0 3.2189353,1.6654141 l -0.0033,-0.0033 a 1.8468678,1.8468678 0 0 0 -2.61095551,0.0057 z m 0.21265568,0.2120558 a 1.5463089,1.5463089 0 0 1 2.18654473,-0.0048 l 0.0027,0.0027 a 1.5463089,1.5463089 0 0 1 3e-4,2.1862447 1.5463089,1.5463089 0 0 1 -2.18594479,0.0018 1.5463089,1.5463089 0 0 1 -0.0036,-2.1859447 z"
       id="path824"
       inkscape:connector-curvature="0" />
  </g>
</svg>
